<svg width="220" height="159" viewBox="0 0 220 159" fill="none" xmlns="http://www.w3.org/2000/svg">
<path d="M170.985 159.004H152.688C148.021 158.927 143.492 157.355 139.722 154.505C135.951 151.655 133.124 147.666 131.629 143.086L119.546 110.892L106.599 144.338C104.938 148.67 102.058 152.385 98.334 155C94.6095 157.616 90.2123 159.01 85.7131 159.004H67.2433C62.5769 158.927 58.0478 157.355 54.2774 154.505C50.507 151.655 47.68 147.666 46.1843 143.086L1.6497 19.8564C0.861668 17.6138 0.607107 15.2073 0.907594 12.8411C1.20808 10.4749 2.05476 8.21862 3.37585 6.26356C4.66706 4.32446 6.39519 2.74088 8.41047 1.65007C10.4258 0.559272 12.6674 -0.00583843 14.941 0.00372187H35.3096C38.3166 -0.066043 41.2685 0.846511 43.747 2.61206C46.2255 4.37761 48.1049 6.90659 49.1188 9.84062L80.0168 99.2669L98.6592 51.5133L87.094 19.6775C86.4102 17.3954 86.289 14.9723 86.7412 12.6292C87.1935 10.286 88.2049 8.0976 89.6832 6.26356C90.9849 4.33536 92.7152 2.76 94.7281 1.67048C96.741 0.580962 98.9774 0.00928632 101.248 0.00372187H121.617C124.607 0.0344811 127.513 1.03402 129.928 2.86222C132.342 4.69043 134.144 7.25566 135.081 10.1983L161.318 91.3974L189.109 9.84062C190.104 6.96478 191.931 4.47692 194.34 2.71646C196.75 0.956002 199.625 0.00867372 202.573 0.00372187H223.632C225.927 0.0101701 228.188 0.580993 230.229 1.66925C232.269 2.7575 234.031 4.33211 235.37 6.26356C236.663 8.23383 237.479 10.4975 237.749 12.8634C238.02 15.2292 237.736 17.6278 236.924 19.8564L192.044 143.086C190.548 147.666 187.721 151.655 183.951 154.505C180.18 157.355 175.651 158.927 170.985 159.004ZM119.2 94.9745L136.462 141.834C137.703 145.167 139.879 148.039 142.709 150.079C145.54 152.119 148.895 153.234 152.342 153.28H170.985C174.432 153.234 177.788 152.119 180.618 150.079C183.448 148.039 185.624 145.167 186.865 141.834L231.745 17.889C232.258 16.5387 232.431 15.0759 232.25 13.6371C232.069 12.1984 231.539 10.8307 230.709 9.66176C229.949 8.43797 228.9 7.43476 227.662 6.74645C226.424 6.05814 225.037 5.70733 223.632 5.72701H202.573C200.785 5.76652 199.051 6.36961 197.601 7.45597C196.152 8.54232 195.056 10.0604 194.46 11.808L161.146 109.104L130.42 11.9868C129.871 10.0538 128.696 8.37595 127.092 7.23577C125.489 6.09558 123.555 5.56275 121.617 5.72701H101.248C99.8696 5.7477 98.5139 6.0973 97.2865 6.74866C96.0592 7.40003 94.9931 8.33564 94.1712 9.48291C93.3115 10.6715 92.7641 12.0709 92.5826 13.5443C92.401 15.0177 92.5916 16.5147 93.1355 17.889L104.355 51.6921L79.6716 115.721L43.9403 11.808C43.2717 10.0035 42.0866 8.45402 40.544 7.36714C39.0014 6.28026 37.175 5.70798 35.3096 5.72701H14.941C13.5419 5.73935 12.1667 6.10396 10.9338 6.78942C9.70089 7.47488 8.64731 8.46064 7.86383 9.66176C7.06255 10.8444 6.54977 12.2106 6.3694 13.6434C6.18903 15.0762 6.34643 16.533 6.82814 17.889L51.3628 141.834C52.6037 145.167 54.7796 148.039 57.61 150.079C60.4405 152.119 63.7957 153.234 67.2433 153.28H85.7131C88.996 153.305 92.2175 152.359 94.9997 150.553C97.7819 148.747 100.009 146.157 101.421 143.086L119.2 94.9745Z" fill="#0BF79C" fill-opacity="0.02"/>
</svg>
