<svg width="16" height="17" viewBox="0 0 16 17" fill="none" xmlns="http://www.w3.org/2000/svg">
<path fill-rule="evenodd" clip-rule="evenodd" d="M8 16.5989C12.4183 16.5989 16 13.0172 16 8.59888C16 4.1806 12.4183 0.598877 8 0.598877C3.58172 0.598877 0 4.1806 0 8.59888C0 13.0172 3.58172 16.5989 8 16.5989ZM7.99994 14.0314C11.0002 14.0314 13.4324 11.5992 13.4324 8.59888C13.4324 5.59859 11.0002 3.16638 7.99994 3.16638C4.99965 3.16638 2.56744 5.59859 2.56744 8.59888C2.56744 11.5992 4.99965 14.0314 7.99994 14.0314Z"/>
<path d="M7.00675 8.15426C6.70851 8.0284 6.49099 7.85603 6.35418 7.63714C6.22011 7.41551 6.15308 7.17336 6.15308 6.9107C6.15308 6.46197 6.30903 6.09123 6.62095 5.79846C6.93561 5.5057 7.3816 5.35931 7.95892 5.35931C8.53077 5.35931 8.97402 5.5057 9.28867 5.79846C9.60606 6.09123 9.76476 6.46197 9.76476 6.9107C9.76476 7.18978 9.69225 7.43877 9.54724 7.65766C9.40222 7.87381 9.19838 8.03935 8.93571 8.15426C9.26952 8.28833 9.52261 8.48397 9.69499 8.74116C9.8701 8.99836 9.95766 9.29523 9.95766 9.63177C9.95766 10.1872 9.77981 10.6387 9.42411 10.9862C9.07115 11.3336 8.60054 11.5074 8.01227 11.5074C7.46505 11.5074 7.00948 11.3637 6.64558 11.0764C6.21601 10.7372 6.00122 10.272 6.00122 9.68102C6.00122 9.35542 6.08194 9.05719 6.24337 8.78631C6.4048 8.5127 6.65926 8.30202 7.00675 8.15426ZM7.24479 6.99278C7.24479 7.22261 7.30909 7.40183 7.43769 7.53043C7.56902 7.65903 7.74276 7.72333 7.95892 7.72333C8.17781 7.72333 8.35292 7.65903 8.48425 7.53043C8.61559 7.39909 8.68125 7.21851 8.68125 6.98868C8.68125 6.77252 8.61559 6.60015 8.48425 6.47155C8.35566 6.34021 8.18465 6.27455 7.97123 6.27455C7.7496 6.27455 7.57312 6.34021 7.44179 6.47155C7.31046 6.60288 7.24479 6.77663 7.24479 6.99278ZM7.13808 9.57021C7.13808 9.8876 7.2188 10.1352 7.38023 10.3131C7.54439 10.4909 7.74824 10.5798 7.99175 10.5798C8.22979 10.5798 8.42679 10.495 8.58275 10.3254C8.73871 10.153 8.81669 9.90538 8.81669 9.58252C8.81669 9.3007 8.73734 9.07497 8.57865 8.90533C8.41995 8.73295 8.21885 8.64677 7.97533 8.64677C7.69351 8.64677 7.48283 8.7439 7.34329 8.93816C7.20648 9.13243 7.13808 9.34311 7.13808 9.57021Z"/>
</svg>
