<svg width="25" height="25" viewBox="0 0 25 25" fill="none" xmlns="http://www.w3.org/2000/svg">
<g clip-path="url(#clip0_6302_13486)">
<path d="M12.1953 21.064C17.1659 21.064 21.1953 17.0345 21.1953 12.064C21.1953 7.0934 17.1659 3.06396 12.1953 3.06396C7.22475 3.06396 3.19531 7.0934 3.19531 12.064C3.19531 17.0345 7.22475 21.064 12.1953 21.064Z" stroke="#35CC95" stroke-width="2" stroke-linecap="round" stroke-linejoin="round"/>
<path d="M12.1955 7.06396L16.9555 10.514L15.1955 16.064H9.19555L7.43555 10.514L12.1955 7.06396Z" stroke="#35CC95" stroke-width="2" stroke-linecap="round" stroke-linejoin="round"/>
<path d="M7.43531 10.514L3.69531 9.06396M12.1953 7.06396V3.06396V7.06396ZM15.1953 16.064L17.6953 19.064L15.1953 16.064ZM16.9553 10.514L20.6953 9.06396L16.9553 10.514ZM9.25531 16.114L6.69531 19.064L9.25531 16.114Z" stroke="#35CC95" stroke-width="2" stroke-linecap="round" stroke-linejoin="round"/>
</g>
<defs>
<clipPath id="clip0_6302_13486">
<rect width="24" height="24" fill="white" transform="translate(0.195312 0.0639648)"/>
</clipPath>
</defs>
</svg>
