<svg width="15" height="29" viewBox="0 0 15 29" fill="none" xmlns="http://www.w3.org/2000/svg">
<path d="M7.31473 28.1479C6.88268 28.1479 6.52027 28.0015 6.2275 27.7087C5.93574 27.4169 5.78986 27.055 5.78986 26.623V24.8694C4.6462 24.6152 3.64233 24.1705 2.77824 23.5351C1.91415 22.8998 1.21525 22.0103 0.681542 20.8666C0.50364 20.5108 0.497033 20.1362 0.661719 19.7428C0.827421 19.3483 1.1263 19.0622 1.55834 18.8843C1.91415 18.7318 2.28266 18.7384 2.66387 18.9041C3.04509 19.0688 3.33736 19.3417 3.54067 19.723C3.97272 20.4854 4.51913 21.0638 5.17991 21.4583C5.84069 21.8517 6.65395 22.0484 7.6197 22.0484C8.6617 22.0484 9.5451 21.8136 10.2699 21.3439C10.9937 20.8732 11.3556 20.1423 11.3556 19.1511C11.3556 18.2616 11.0761 17.5561 10.517 17.0346C9.95784 16.5141 8.6617 15.9235 6.62854 15.2627C4.44289 14.5765 2.94343 13.7572 2.13017 12.8046C1.3169 11.8511 0.910272 10.6881 0.910272 9.31571C0.910272 7.66377 1.44398 6.38034 2.51139 5.46542C3.5788 4.55049 4.67162 4.0295 5.78986 3.90242V2.22507C5.78986 1.79302 5.93574 1.43061 6.2275 1.13783C6.52027 0.846074 6.88268 0.700195 7.31473 0.700195C7.74677 0.700195 8.10918 0.846074 8.40196 1.13783C8.69372 1.43061 8.8396 1.79302 8.8396 2.22507V3.90242C9.80535 4.05491 10.644 4.36649 11.3556 4.83717C12.0672 5.30683 12.6518 5.88475 13.1092 6.57095C13.338 6.90133 13.3827 7.26985 13.2434 7.67648C13.1031 8.08311 12.817 8.37538 12.3849 8.55328C12.0291 8.70576 11.6606 8.71186 11.2794 8.57158C10.8982 8.4323 10.5424 8.18477 10.212 7.82896C9.88159 7.47316 9.49428 7.1997 9.05003 7.00858C8.60477 6.81848 8.05175 6.72343 7.39097 6.72343C6.27273 6.72343 5.42135 6.97148 4.83681 7.46757C4.25228 7.96265 3.96001 8.57869 3.96001 9.31571C3.96001 10.1544 4.34123 10.8152 5.10367 11.298C5.8661 11.7809 7.18765 12.2892 9.06833 12.8229C10.8219 13.3312 12.1501 14.1379 13.0528 15.2429C13.9545 16.3489 14.4054 17.6263 14.4054 19.0749C14.4054 20.8793 13.8717 22.2517 12.8043 23.192C11.7369 24.1324 10.4153 24.7169 8.8396 24.9456V26.623C8.8396 27.055 8.69372 27.4169 8.40196 27.7087C8.10918 28.0015 7.74677 28.1479 7.31473 28.1479Z" fill="#35CC95"/>
</svg>
