<?xml version="1.0" encoding="utf-8"?>
<!-- Svg Vector Icons : http://www.onlinewebfonts.com/icon -->
<!DOCTYPE svg PUBLIC "-//W3C//DTD SVG 1.1//EN" "http://www.w3.org/Graphics/SVG/1.1/DTD/svg11.dtd">
<svg version="1.1"
    xmlns="http://www.w3.org/2000/svg"
    xmlns:xlink="http://www.w3.org/1999/xlink" x="0px" y="0px" viewBox="0 0 1000 1000" enable-background="new 0 0 1000 1000" xml:space="preserve">
    <g>
        <g transform="translate(0.000000,511.000000) scale(0.100000,-0.100000)">
            <path d="M5444.2,5083.1c-399.8-79.2-740.8-336.9-917.3-698.1c-188.7-383.6-249.6-698.1-233.4-1181.1c16.2-503.3,97.4-815.8,420.1-1639.8c235.4-598.7,259.8-736.7,136-779.3c-93.4-32.5-158.3,6.1-221.2,129.9c-58.9,111.6-103.5,280.1-259.8,974.1c-213.1,939.6-505.3,1564.7-915.3,1958.4c-375.4,359.2-688,489.1-1055.3,436.3c-336.9-48.7-623-221.2-864.5-525.6c-241.5-300.4-326.7-545.9-349.1-996.5c-10.1-255.7-20.3-324.7-50.7-371.4c-20.3-30.4-127.9-111.6-237.5-178.6c-241.5-148.1-375.4-265.9-493.1-432.3C-169.2,973.4,92.6,46,989.6-295c288.2-107.6,623-136,955.9-79.1c328.8,58.8,552,138,1126.3,401.8c537.8,245.5,657.5,286.1,880.8,286.1c162.4,2,192.8-4.1,276-52.8c105.5-62.9,200.9-174.5,200.9-239.5s-69-79.2-556.1-111.6c-815.8-54.8-1282.6-166.4-1743.3-418.1c-442.4-243.5-836.1-641.3-1067.5-1077.6c-99.4-188.7-131.9-324.7-129.9-554c4.1-547.9,286.1-990.4,787.4-1238c241.5-119.7,373.4-150.2,690-164.4c146.1-6.1,284.1-14.2,308.5-20.3c75.1-14.2,162.4-105.5,261.8-267.9c146.1-241.5,229.3-345,381.5-464.8c373.4-292.2,874.7-418.1,1290.7-318.6c340.9,79.2,649.4,314.6,791.5,602.7c127.9,261.8,168.4,440.4,168.4,775.3c4.1,521.6-95.4,874.7-519.5,1867.1c-241.5,566.2-296.3,748.8-267.9,882.8c10.1,44.7,24.4,60.9,58.9,60.9c125.8,0,188.7-117.7,345-635.2c158.3-519.6,308.5-959.9,503.3-1465.3c375.4-980.2,592.6-1422.6,1018.8-2076.1l174.5-267.9h253.7c198.9,0,253.7,6.1,241.5,26.4c-8.1,12.2-131.9,180.6-272,369.4c-677.8,907.2-1061.4,1607.3-1410.5,2567.2c-265.8,734.7-436.3,1244-436.3,1311c0,136,138,154.3,324.7,42.6C5943.5-739.4,6022.6-920,6144.4-1744c87.3-586.5,142.1-801.6,276-1073.6c87.3-176.5,129.9-235.4,272-377.5s200.9-184.7,377.5-272c434.3-213.1,805.7-241.5,1118.2-81.2c205,103.5,426.2,389.7,533.7,688c48.7,133.9,56.8,194.8,71,487.1c6.1,184.7,22.3,353.1,34.5,375.4c38.5,69,129.9,142.1,322.7,261.8c294.3,178.6,481,387.6,617,690c251.7,556.1,142.1,1152.7-292.2,1580.9c-91.3,89.3-172.5,144.1-345,227.3c-736.7,353.1-1473.4,294.3-2731.6-223.2c-452.6-186.7-598.7-233.4-714.4-233.4c-121.8,0-178.6,48.7-178.6,154.2c0,107.6,95.4,194.8,274,251.7c79.2,24.4,383.6,83.2,679.9,133.9c294.3,48.7,633.2,113.6,748.9,142.1c677.8,166.4,1142.6,422.1,1442.9,793.5c265.8,328.8,357.2,590.6,338.9,970.1c-16.2,357.2-131.9,614.9-383.6,852.4c-152.2,144.1-336.9,255.7-550,330.8c-123.8,42.6-196.9,52.8-485,64.9c-401.8,16.2-430.3,28.4-568.2,249.6c-154.2,245.6-261.8,379.5-389.7,483c-144.1,115.7-436.3,265.9-610.8,312.5C5878.5,5077,5537.6,5101.3,5444.2,5083.1z"/>
        </g>
    </g>
</svg>
