<svg width="12" height="13" viewBox="0 0 12 13" fill="none" xmlns="http://www.w3.org/2000/svg">
<circle cx="5.96989" cy="6.18767" r="5.32927" fill="#35CD96" fill-opacity="0.22"/>
<path fill-rule="evenodd" clip-rule="evenodd" d="M5.9693 3.20801C6.06809 3.20801 6.16284 3.24725 6.2327 3.31711C6.30255 3.38697 6.3418 3.48171 6.3418 3.58051V7.89629L7.94057 6.29678C7.9752 6.26214 8.01632 6.23467 8.06157 6.21593C8.10682 6.19718 8.15532 6.18754 8.2043 6.18754C8.25328 6.18754 8.30178 6.19718 8.34703 6.21593C8.39228 6.23467 8.4334 6.26214 8.46803 6.29678C8.50266 6.33141 8.53014 6.37253 8.54888 6.41778C8.56762 6.46303 8.57727 6.51153 8.57727 6.56051C8.57727 6.60949 8.56762 6.65799 8.54888 6.70324C8.53014 6.74849 8.50266 6.7896 8.46803 6.82424L6.23303 9.05924C6.19843 9.09393 6.15732 9.12145 6.11207 9.14023C6.06681 9.15901 6.0183 9.16867 5.9693 9.16867C5.9203 9.16867 5.87179 9.15901 5.82653 9.14023C5.78128 9.12145 5.74017 9.09393 5.70557 9.05924L3.47057 6.82424C3.43594 6.7896 3.40846 6.74849 3.38972 6.70324C3.37098 6.65799 3.36133 6.60949 3.36133 6.56051C3.36133 6.51153 3.37098 6.46303 3.38972 6.41778C3.40846 6.37253 3.43594 6.33141 3.47057 6.29678C3.54051 6.22683 3.63538 6.18754 3.7343 6.18754C3.78328 6.18754 3.83178 6.19718 3.87703 6.21593C3.92228 6.23467 3.9634 6.26214 3.99803 6.29678L5.5968 7.89629V3.58051C5.5968 3.48171 5.63604 3.38697 5.7059 3.31711C5.77576 3.24725 5.87051 3.20801 5.9693 3.20801Z" fill="#35CC95"/>
</svg>
