<svg width="13" height="14" viewBox="0 0 13 14" fill="none" xmlns="http://www.w3.org/2000/svg">
<ellipse cx="6.8058" cy="7.45723" rx="5.32924" ry="5.77632" fill="#ED4C5C" fill-opacity="0.22"/>
<path fill-rule="evenodd" clip-rule="evenodd" d="M6.80522 10.687C6.90401 10.687 6.99876 10.6445 7.06861 10.5688C7.13847 10.493 7.17772 10.3903 7.17772 10.2833V5.60544L8.77648 7.33914C8.81111 7.37668 8.85222 7.40645 8.89747 7.42677C8.94273 7.44708 8.99122 7.45754 9.0402 7.45754C9.08918 7.45754 9.13768 7.44708 9.18293 7.42677C9.22818 7.40645 9.2693 7.37668 9.30393 7.33914C9.33857 7.3016 9.36604 7.25703 9.38478 7.20799C9.40352 7.15894 9.41317 7.10637 9.41317 7.05328C9.41317 7.0002 9.40352 6.94763 9.38478 6.89858C9.36604 6.84953 9.33857 6.80497 9.30393 6.76743L7.06895 4.34494C7.03435 4.30735 6.99324 4.27751 6.94798 4.25716C6.90273 4.23681 6.85422 4.22633 6.80522 4.22633C6.75622 4.22633 6.70771 4.23681 6.66245 4.25716C6.6172 4.27751 6.57609 4.30735 6.54149 4.34494L4.30651 6.76743C4.27187 6.80497 4.2444 6.84953 4.22566 6.89858C4.20691 6.94763 4.19727 7.0002 4.19727 7.05328C4.19727 7.10637 4.20691 7.15894 4.22566 7.20799C4.2444 7.25703 4.27187 7.3016 4.30651 7.33914C4.37645 7.41495 4.47132 7.45754 4.57023 7.45754C4.61921 7.45754 4.66771 7.44708 4.71296 7.42677C4.75821 7.40645 4.79933 7.37668 4.83396 7.33914L6.43272 5.60544V10.2833C6.43272 10.3903 6.47197 10.493 6.54182 10.5688C6.61168 10.6445 6.70643 10.687 6.80522 10.687Z" fill="#ED4C5C"/>
</svg>
