<svg width="21" height="17" viewBox="0 0 21 17" fill="none" xmlns="http://www.w3.org/2000/svg">
<path d="M2.39067 6.42094L8.38105 12.8152L5.49643 6.42094H2.39067ZM10.1984 13.844L13.5541 6.42094H6.84259L10.1984 13.844ZM5.52528 5.19017L7.48682 1.49786H4.96759L2.19836 5.19017H5.52528ZM12.0157 12.8152L18.0061 6.42094H14.9003L12.0157 12.8152ZM6.91951 5.19017H13.4772L11.5157 1.49786H8.88105L6.91951 5.19017ZM14.8714 5.19017H18.1984L15.4291 1.49786H12.9099L14.8714 5.19017ZM16.2272 0.51709L19.9195 5.44017C20.0093 5.55555 20.0509 5.68856 20.0445 5.83921C20.0381 5.98985 19.9836 6.11965 19.8811 6.22863L10.6503 16.0748C10.5349 16.203 10.3843 16.2671 10.1984 16.2671C10.0125 16.2671 9.86182 16.203 9.74643 16.0748L0.515665 6.22863C0.413101 6.11965 0.358614 5.98985 0.352204 5.83921C0.345793 5.68856 0.38746 5.55555 0.477204 5.44017L4.16951 0.51709C4.2849 0.350423 4.44836 0.26709 4.6599 0.26709H15.7368C15.9484 0.26709 16.1118 0.350423 16.2272 0.51709Z" fill="#35CC95"/>
</svg>
