<svg width="25" height="15" viewBox="0 0 25 15" fill="none" xmlns="http://www.w3.org/2000/svg">
<path d="M12.1953 3.36121C10.2071 3.36121 8.59531 5.19824 8.59531 7.46466C8.59531 9.73071 10.2071 11.5681 12.1953 11.5681C14.1828 11.5681 15.7953 9.73145 15.7953 7.46466C15.7953 5.19824 14.1836 3.36121 12.1953 3.36121ZM13.6953 9.51638C13.6953 9.67832 13.5611 9.80949 13.3953 9.80949H10.9953C10.8296 9.80949 10.6953 9.67832 10.6953 9.51638V8.93018C10.6953 8.76824 10.8296 8.63707 10.9953 8.63707H11.5953V6.60587L11.5777 6.61722C11.5449 6.63859 11.5082 6.65343 11.4695 6.66091C11.4309 6.66838 11.3911 6.66834 11.3525 6.66079C11.3139 6.65323 11.2771 6.63831 11.2444 6.61688C11.2117 6.59545 11.1836 6.56793 11.1618 6.53589L10.8288 6.04824C10.8069 6.01622 10.7918 5.98032 10.7841 5.94256C10.7765 5.90481 10.7765 5.86595 10.7842 5.82822C10.792 5.79048 10.8072 5.7546 10.8292 5.72264C10.8511 5.69067 10.8793 5.66324 10.9121 5.64192L11.4869 5.26748C11.6347 5.1712 11.8084 5.11982 11.9861 5.11983H12.4953C12.6611 5.11983 12.7953 5.25099 12.7953 5.41293V8.63707H13.3953C13.5611 8.63707 13.6953 8.76824 13.6953 8.93018V9.51638ZM22.9953 0.430176H1.39531C0.732688 0.430176 0.195312 0.955197 0.195312 1.60259V13.3267C0.195312 13.9741 0.732688 14.4991 1.39531 14.4991H22.9953C23.6579 14.4991 24.1953 13.9741 24.1953 13.3267V1.60259C24.1953 0.955197 23.6579 0.430176 22.9953 0.430176ZM22.3953 10.3957C21.0697 10.3957 19.9953 11.4454 19.9953 12.7405H4.39531C4.39531 11.4454 3.32094 10.3957 1.99531 10.3957V4.53362C3.32094 4.53362 4.39531 3.48395 4.39531 2.1888H19.9953C19.9953 3.48395 21.0697 4.53362 22.3953 4.53362V10.3957Z" fill="#35CC95"/>
</svg>
