<svg width="9" height="5" viewBox="0 0 9 5" fill="none" xmlns="http://www.w3.org/2000/svg">
<path d="M0.522835 0.32264C0.640039 0.205471 0.798981 0.139648 0.964708 0.139648C1.13044 0.139648 1.28938 0.205471 1.40658 0.32264L4.50032 3.41639L7.59406 0.32264C7.71194 0.208791 7.86981 0.145795 8.03368 0.147219C8.19756 0.148643 8.35431 0.214373 8.47019 0.330253C8.58607 0.446133 8.6518 0.602891 8.65323 0.766764C8.65465 0.930637 8.59165 1.08851 8.47781 1.20639L4.94219 4.74201C4.82499 4.85918 4.66605 4.92501 4.50032 4.92501C4.33459 4.92501 4.17565 4.85918 4.05845 4.74201L0.522835 1.20639C0.405666 1.08918 0.339844 0.930243 0.339844 0.764515C0.339844 0.598787 0.405666 0.439845 0.522835 0.32264Z" fill="white"/>
</svg>
