<svg width="13" height="14" viewBox="0 0 13 14" fill="none" xmlns="http://www.w3.org/2000/svg">
<path d="M6.49961 0.450684C4.80222 0.450684 3.17436 1.12497 1.97413 2.3252C0.773893 3.52543 0.0996094 5.1533 0.0996094 6.85068C0.0996094 8.54807 0.773893 10.1759 1.97413 11.3762C3.17436 12.5764 4.80222 13.2507 6.49961 13.2507C8.197 13.2507 9.82486 12.5764 11.0251 11.3762C12.2253 10.1759 12.8996 8.54807 12.8996 6.85068C12.8996 5.1533 12.2253 3.52543 11.0251 2.3252C9.82486 1.12497 8.197 0.450684 6.49961 0.450684V0.450684ZM4.17321 1.75468L6.10121 2.87948V4.23948L3.88601 5.80108L2.63801 5.34748L2.13721 3.33788C2.68397 2.65945 3.38099 2.11745 4.17321 1.75468V1.75468ZM0.926809 7.40428L2.38841 6.10828L3.62521 6.55708L4.46121 9.18908L3.88761 10.0475H1.90121C1.35521 9.26451 1.01967 8.35431 0.926809 7.40428V7.40428ZM5.19801 12.2987L4.54601 10.5019L5.11401 9.65148H7.88761L8.45641 10.5019L7.80441 12.2979C6.94765 12.5024 6.05477 12.5024 5.19801 12.2979V12.2987ZM11.098 10.0475H9.11561L8.53961 9.18748L9.35961 6.55788L10.6132 6.10668L12.0724 7.40428C11.9795 8.35431 11.644 9.26451 11.098 10.0475V10.0475ZM10.866 3.34348L10.3652 5.34588L9.09801 5.80188L6.90041 4.24028V2.88028L8.82761 1.75468C9.62121 2.11848 10.3191 2.66219 10.866 3.34268V3.34348Z" fill="white"/>
</svg>
