<svg width="189" height="63" viewBox="0 0 189 63" fill="none" xmlns="http://www.w3.org/2000/svg">
<path d="M0.699463 0.304199H111.348L119.97 9.39459L111.348 18.8934H0.699463V0.304199Z" fill="#A0A0A0"/>
<path d="M0.699463 21.8569H180.067L188.878 30.9473L180.067 40.4462H0.699463V21.8569Z" fill="#A0A0A0"/>
<path fill-rule="evenodd" clip-rule="evenodd" d="M7.7847 45.0601H11.3742V47.2148L9.59538 49.0122L7.7847 47.2148V45.0601ZM13.4677 53.9463C13.4677 56.0938 11.7269 57.8346 9.5794 57.8346C7.43193 57.8346 5.69106 56.0938 5.69106 53.9463C5.69106 51.7988 7.43193 50.058 9.5794 50.058C11.7269 50.058 13.4677 51.7988 13.4677 53.9463ZM15.6079 47.1767L12.5123 45.3597L11.4215 47.218L12.0733 49.6846L14.5171 49.035L15.6079 47.1767ZM16.4142 47.9608L18.1627 51.0956L16.2809 52.1452L13.8447 51.4673L14.5324 49.0104L16.4142 47.9608ZM18.4382 55.7917V52.2022H16.2834L14.4861 54.0129L16.2834 55.7917H16.316L13.8552 56.4295L14.4932 58.8764L16.3464 59.9759L18.178 56.8889L16.3287 55.7917H18.4382ZM12.5749 62.6009L15.6262 60.7104L14.4914 58.8787L12.0056 58.3045L11.4401 60.7691L12.5749 62.6009ZM11.3741 62.8905H7.78465V60.7357L9.56343 58.9384L11.3741 60.7357V62.8905ZM3.54462 60.7271L6.60806 62.5978L7.73106 60.7588L7.12244 58.2812L4.66762 58.8881L3.54462 60.7271ZM2.78225 59.9516L0.997637 56.8372L2.86723 55.7659L5.31105 56.4156L4.65184 58.8802L2.78225 59.9516ZM0.699463 52.1516V55.741H2.85425L4.65157 53.9304L2.85425 52.1516H0.699463ZM0.991677 51.0829L2.75175 47.9546L4.62971 49.0111L5.32391 51.4427L2.86964 52.1395L0.991677 51.0829ZM6.72691 45.3068L3.58149 47.0361L4.61961 48.9243L7.0722 49.627L7.76503 47.195L6.72691 45.3068Z" fill="#EAE2E2"/>
<path d="M4.18914 5.16551V3.68275H13.0244V5.16551H9.46241V15.0989H7.74553V5.16551H4.18914ZM14.6628 15.0989V3.68275H16.3853V8.64386H22.0766V3.68275H23.8046V15.0989H22.0766V10.121H16.3853V15.0989H14.6628ZM25.9991 15.0989V3.68275H33.1565V5.16551H27.7216V8.64386H32.783V10.121H27.7216V13.6161H33.2234V15.0989H25.9991ZM35.1433 15.0989V3.68275H39.2126C40.097 3.68275 40.831 3.83511 41.4144 4.13984C42.0016 4.44457 42.4401 4.86636 42.7299 5.4052C43.0198 5.94033 43.1647 6.55908 43.1647 7.26144C43.1647 7.96008 43.0179 8.57511 42.7244 9.10653C42.4345 9.63422 41.996 10.0449 41.4088 10.3384C40.8254 10.632 40.0914 10.7788 39.207 10.7788H36.1244V9.29605H39.0509C39.6083 9.29605 40.0617 9.21615 40.411 9.05636C40.7641 8.89656 41.0223 8.6643 41.1859 8.35957C41.3494 8.05484 41.4311 7.6888 41.4311 7.26144C41.4311 6.83036 41.3475 6.45688 41.1803 6.14101C41.0168 5.82513 40.7585 5.58358 40.4055 5.41635C40.0561 5.24541 39.5972 5.15993 39.0286 5.15993H36.8658V15.0989H35.1433ZM40.7789 9.94824L43.5995 15.0989H41.6374L38.8725 9.94824H40.7789ZM45.9111 15.0989H44.0827L48.1909 3.68275H50.181L54.2892 15.0989H52.4608L49.2333 5.75638H49.1441L45.9111 15.0989ZM46.2177 10.6283H52.1487V12.0776H46.2177V10.6283ZM55.6239 15.0989V3.68275H59.6931C60.5813 3.68275 61.3171 3.8444 61.9005 4.16771C62.4839 4.49102 62.9206 4.93325 63.2105 5.49439C63.5003 6.05182 63.6452 6.67986 63.6452 7.3785C63.6452 8.08086 63.4985 8.71261 63.2049 9.27375C62.915 9.83118 62.4765 10.2734 61.8893 10.6004C61.3059 10.9237 60.572 11.0854 59.6875 11.0854H56.8892V9.62493H59.5314C60.0926 9.62493 60.5478 9.52831 60.8971 9.33507C61.2464 9.13811 61.5029 8.87055 61.6664 8.53237C61.8299 8.1942 61.9116 7.80958 61.9116 7.3785C61.9116 6.94742 61.8299 6.56465 61.6664 6.2302C61.5029 5.89574 61.2446 5.63375 60.8916 5.44422C60.5422 5.2547 60.0814 5.15993 59.5091 5.15993H57.3463V15.0989H55.6239ZM64.4699 3.68275H66.4264L69.4087 8.87241H69.5313L72.5135 3.68275H74.4701L70.3284 10.6172V15.0989H68.6115V10.6172L64.4699 3.68275ZM79.6228 15.0989V3.68275H86.7021V5.16551H81.3452V8.64386H86.1948V10.121H81.3452V15.0989H79.6228ZM98.423 9.39081C98.423 10.6097 98.2 11.6577 97.7541 12.5347C97.3082 13.408 96.6968 14.0806 95.9202 14.5526C95.1472 15.0208 94.2683 15.255 93.2835 15.255C92.295 15.255 91.4124 15.0208 90.6357 14.5526C89.8628 14.0806 89.2533 13.4062 88.8074 12.5291C88.3614 11.6521 88.1385 10.606 88.1385 9.39081C88.1385 8.1719 88.3614 7.1258 88.8074 6.25249C89.2533 5.37547 89.8628 4.70284 90.6357 4.2346C91.4124 3.76265 92.295 3.52667 93.2835 3.52667C94.2683 3.52667 95.1472 3.76265 95.9202 4.2346C96.6968 4.70284 97.3082 5.37547 97.7541 6.25249C98.2 7.1258 98.423 8.1719 98.423 9.39081ZM96.7173 9.39081C96.7173 8.46177 96.5668 7.67951 96.2658 7.04404C95.9685 6.40486 95.5597 5.92175 95.0394 5.59473C94.5229 5.26399 93.9376 5.09862 93.2835 5.09862C92.6258 5.09862 92.0386 5.26399 91.5221 5.59473C91.0055 5.92175 90.5967 6.40486 90.2957 7.04404C89.9984 7.67951 89.8498 8.46177 89.8498 9.39081C89.8498 10.3199 89.9984 11.104 90.2957 11.7432C90.5967 12.3786 91.0055 12.8617 91.5221 13.1925C92.0386 13.5195 92.6258 13.683 93.2835 13.683C93.9376 13.683 94.5229 13.5195 95.0394 13.1925C95.5597 12.8617 95.9685 12.3786 96.2658 11.7432C96.5668 11.104 96.7173 10.3199 96.7173 9.39081ZM100.257 15.0989V3.68275H104.326C105.21 3.68275 105.944 3.83511 106.528 4.13984C107.115 4.44457 107.553 4.86636 107.843 5.4052C108.133 5.94033 108.278 6.55908 108.278 7.26144C108.278 7.96008 108.131 8.57511 107.838 9.10653C107.548 9.63422 107.109 10.0449 106.522 10.3384C105.939 10.632 105.205 10.7788 104.32 10.7788H101.238V9.29605H104.164C104.722 9.29605 105.175 9.21615 105.524 9.05636C105.877 8.89656 106.136 8.6643 106.299 8.35957C106.463 8.05484 106.544 7.6888 106.544 7.26144C106.544 6.83036 106.461 6.45688 106.294 6.14101C106.13 5.82513 105.872 5.58358 105.519 5.41635C105.169 5.24541 104.71 5.15993 104.142 5.15993H101.979V15.0989H100.257ZM105.892 9.94824L108.713 15.0989H106.751L103.986 9.94824H105.892Z" fill="white"/>
<path d="M12.4781 28.842C12.3703 28.5039 12.2254 28.201 12.0433 27.9334C11.8649 27.6622 11.6512 27.4318 11.4023 27.2422C11.1533 27.049 10.869 26.9022 10.5494 26.8019C10.2335 26.7015 9.88605 26.6514 9.507 26.6514C8.8641 26.6514 8.28437 26.8167 7.76782 27.1475C7.25127 27.4782 6.84249 27.9632 6.54148 28.6023C6.24419 29.2378 6.09554 30.0164 6.09554 30.938C6.09554 31.8633 6.24605 32.6456 6.54706 33.2847C6.84807 33.9239 7.26056 34.4089 7.78455 34.7396C8.30853 35.0704 8.90498 35.2357 9.57389 35.2357C10.1945 35.2357 10.7352 35.1094 11.196 34.8567C11.6605 34.604 12.0191 34.2472 12.2718 33.7864C12.5283 33.3219 12.6565 32.7756 12.6565 32.1476L13.1024 32.2312H9.83588V30.8098H14.3232V32.1086C14.3232 33.0673 14.1188 33.8998 13.71 34.6059C13.3049 35.3082 12.7438 35.8508 12.0266 36.2335C11.3131 36.6163 10.4955 36.8077 9.57389 36.8077C8.54079 36.8077 7.63404 36.5699 6.85364 36.0942C6.07696 35.6185 5.47122 34.944 5.03643 34.0707C4.60163 33.1937 4.38424 32.1532 4.38424 30.9491C4.38424 30.0387 4.51059 29.2211 4.76329 28.4964C5.01599 27.7718 5.37088 27.1568 5.82797 26.6514C6.28878 26.1422 6.82949 25.7539 7.45009 25.4863C8.07441 25.215 8.75633 25.0794 9.49585 25.0794C10.1127 25.0794 10.6869 25.1705 11.2183 25.3525C11.7534 25.5346 12.2291 25.7929 12.6453 26.1274C13.0652 26.4618 13.4127 26.8595 13.6877 27.3203C13.9627 27.7774 14.1485 28.2846 14.2451 28.842H12.4781ZM16.8075 36.6516H14.9792L19.0874 25.2355H21.0774L25.1857 36.6516H23.3573L20.1298 27.3091H20.0406L16.8075 36.6516ZM17.1141 32.181H23.0451V33.6304H17.1141V32.181ZM26.5203 25.2355H28.6107L32.2451 34.1097H32.3789L36.0133 25.2355H38.1037V36.6516H36.4648V28.3905H36.3589L32.9921 36.6349H31.6319L28.2651 28.385H28.1592V36.6516H26.5203V25.2355ZM40.294 36.6516V25.2355H44.4747C45.2848 25.2355 45.9556 25.3693 46.487 25.6368C47.0184 25.9007 47.416 26.2593 47.6799 26.7127C47.9437 27.1623 48.0757 27.6696 48.0757 28.2344C48.0757 28.7101 47.9883 29.1115 47.8137 29.4385C47.639 29.7618 47.4049 30.0219 47.1113 30.2189C46.8215 30.4121 46.5019 30.5533 46.1525 30.6425V30.754C46.5316 30.7726 46.9014 30.8952 47.2618 31.1219C47.626 31.3449 47.927 31.6626 48.1649 32.0751C48.4027 32.4876 48.5216 32.9893 48.5216 33.5802C48.5216 34.1636 48.3841 34.6876 48.1091 35.1521C47.8378 35.6129 47.4179 35.979 46.8493 36.2503C46.2808 36.5178 45.5542 36.6516 44.6698 36.6516H40.294ZM42.0164 35.1744H44.5026C45.3275 35.1744 45.9184 35.0146 46.2752 34.695C46.6319 34.3754 46.8103 33.976 46.8103 33.4966C46.8103 33.1361 46.7193 32.8054 46.5372 32.5043C46.3551 32.2033 46.0949 31.9636 45.7568 31.7853C45.4223 31.6069 45.0247 31.5177 44.5639 31.5177H42.0164V35.1744ZM42.0164 30.1743H44.3242C44.7107 30.1743 45.0581 30.1 45.3666 29.9513C45.6787 29.8027 45.9259 29.5946 46.1079 29.327C46.2938 29.0557 46.3867 28.7361 46.3867 28.3682C46.3867 27.8963 46.2213 27.5005 45.8906 27.1809C45.5598 26.8613 45.0526 26.7015 44.3688 26.7015H42.0164V30.1743ZM50.2506 36.6516V25.2355H51.9731V35.1689H57.146V36.6516H50.2506ZM60.5195 25.2355V36.6516H58.797V25.2355H60.5195ZM71.9282 25.2355V36.6516H70.3451L64.5423 28.279H64.4364V36.6516H62.714V25.2355H64.3082L70.1166 33.6192H70.2225V25.2355H71.9282ZM81.8529 28.842C81.7451 28.5039 81.6002 28.201 81.4181 27.9334C81.2397 27.6622 81.026 27.4318 80.777 27.2422C80.528 27.049 80.2437 26.9022 79.9242 26.8019C79.6083 26.7015 79.2608 26.6514 78.8818 26.6514C78.2389 26.6514 77.6591 26.8167 77.1426 27.1475C76.626 27.4782 76.2173 27.9632 75.9162 28.6023C75.619 29.2378 75.4703 30.0164 75.4703 30.938C75.4703 31.8633 75.6208 32.6456 75.9218 33.2847C76.2228 33.9239 76.6353 34.4089 77.1593 34.7396C77.6833 35.0704 78.2797 35.2357 78.9487 35.2357C79.5693 35.2357 80.11 35.1094 80.5708 34.8567C81.0353 34.604 81.3939 34.2472 81.6466 33.7864C81.903 33.3219 82.0312 32.7756 82.0312 32.1476L82.4772 32.2312H79.2106V30.8098H83.6979V32.1086C83.6979 33.0673 83.4936 33.8998 83.0848 34.6059C82.6797 35.3082 82.1186 35.8508 81.4013 36.2335C80.6878 36.6163 79.8703 36.8077 78.9487 36.8077C77.9156 36.8077 77.0088 36.5699 76.2284 36.0942C75.4517 35.6185 74.846 34.944 74.4112 34.0707C73.9764 33.1937 73.759 32.1532 73.759 30.9491C73.759 30.0387 73.8853 29.2211 74.1381 28.4964C74.3908 27.7718 74.7456 27.1568 75.2027 26.6514C75.6635 26.1422 76.2042 25.7539 76.8249 25.4863C77.4492 25.215 78.1311 25.0794 78.8706 25.0794C79.4875 25.0794 80.0617 25.1705 80.5931 25.3525C81.1282 25.5346 81.6039 25.7929 82.0201 26.1274C82.44 26.4618 82.7875 26.8595 83.0625 27.3203C83.3375 27.7774 83.5233 28.2846 83.6199 28.842H81.8529ZM90.3751 36.6516H88.5468L92.655 25.2355H94.645L98.7533 36.6516H96.9249L93.6974 27.3091H93.6082L90.3751 36.6516ZM90.6817 32.181H96.6128V33.6304H90.6817V32.181ZM103.784 36.6516H100.088V25.2355H103.901C105.019 25.2355 105.98 25.464 106.783 25.9211C107.585 26.3745 108.2 27.0267 108.628 27.8777C109.059 28.725 109.274 29.7414 109.274 30.9268C109.274 32.116 109.057 33.138 108.622 33.9927C108.191 34.8474 107.567 35.5052 106.749 35.966C105.932 36.4231 104.943 36.6516 103.784 36.6516ZM101.81 35.1466H103.689C104.559 35.1466 105.281 34.983 105.857 34.656C106.433 34.3253 106.864 33.8477 107.151 33.2234C107.437 32.5954 107.58 31.8299 107.58 30.9268C107.58 30.0312 107.437 29.2713 107.151 28.6469C106.868 28.0226 106.446 27.5488 105.885 27.2255C105.324 26.9022 104.627 26.7405 103.795 26.7405H101.81V35.1466ZM114.798 36.6516H111.102V25.2355H114.915C116.034 25.2355 116.994 25.464 117.797 25.9211C118.6 26.3745 119.215 27.0267 119.642 27.8777C120.073 28.725 120.289 29.7414 120.289 30.9268C120.289 32.116 120.071 33.138 119.637 33.9927C119.205 34.8474 118.581 35.5052 117.764 35.966C116.946 36.4231 115.958 36.6516 114.798 36.6516ZM112.825 35.1466H114.703C115.573 35.1466 116.296 34.983 116.872 34.656C117.448 34.3253 117.879 33.8477 118.165 33.2234C118.451 32.5954 118.594 31.8299 118.594 30.9268C118.594 30.0312 118.451 29.2713 118.165 28.6469C117.883 28.0226 117.461 27.5488 116.9 27.2255C116.338 26.9022 115.642 26.7405 114.809 26.7405H112.825V35.1466ZM123.839 25.2355V36.6516H122.117V25.2355H123.839ZM135.516 28.948H133.776C133.709 28.5763 133.585 28.2493 133.403 27.9669C133.221 27.6845 132.998 27.4448 132.734 27.2478C132.47 27.0508 132.175 26.9022 131.848 26.8019C131.524 26.7015 131.181 26.6514 130.816 26.6514C130.159 26.6514 129.57 26.8167 129.049 27.1475C128.533 27.4782 128.124 27.9632 127.823 28.6023C127.526 29.2415 127.377 30.0219 127.377 30.9435C127.377 31.8726 127.526 32.6567 127.823 33.2959C128.124 33.9351 128.535 34.4182 129.055 34.7452C129.575 35.0722 130.16 35.2357 130.811 35.2357C131.171 35.2357 131.513 35.1874 131.836 35.0908C132.164 34.9905 132.459 34.8437 132.723 34.6504C132.987 34.4572 133.21 34.2212 133.392 33.9425C133.578 33.6601 133.706 33.3368 133.776 32.9726L135.516 32.9782C135.423 33.5393 135.242 34.0559 134.975 34.5278C134.711 34.9961 134.371 35.4011 133.955 35.743C133.542 36.0812 133.07 36.3432 132.539 36.529C132.007 36.7148 131.428 36.8077 130.8 36.8077C129.811 36.8077 128.93 36.5736 128.157 36.1053C127.384 35.6334 126.775 34.9589 126.329 34.0819C125.887 33.2048 125.666 32.1587 125.666 30.9435C125.666 29.7246 125.889 28.6785 126.335 27.8052C126.781 26.9282 127.39 26.2556 128.163 25.7873C128.936 25.3154 129.815 25.0794 130.8 25.0794C131.405 25.0794 131.97 25.1667 132.494 25.3414C133.022 25.5123 133.496 25.765 133.916 26.0995C134.336 26.4302 134.683 26.8353 134.958 27.3147C135.233 27.7904 135.419 28.3348 135.516 28.948ZM136.7 26.7182V25.2355H145.535V26.7182H141.973V36.6516H140.256V26.7182H136.7ZM148.896 25.2355V36.6516H147.173V25.2355H148.896ZM161.007 30.9435C161.007 32.1625 160.784 33.2104 160.338 34.0874C159.892 34.9607 159.281 35.6334 158.504 36.1053C157.731 36.5736 156.852 36.8077 155.867 36.8077C154.879 36.8077 153.996 36.5736 153.22 36.1053C152.447 35.6334 151.837 34.9589 151.391 34.0819C150.945 33.2048 150.722 32.1587 150.722 30.9435C150.722 29.7246 150.945 28.6785 151.391 27.8052C151.837 26.9282 152.447 26.2556 153.22 25.7873C153.996 25.3154 154.879 25.0794 155.867 25.0794C156.852 25.0794 157.731 25.3154 158.504 25.7873C159.281 26.2556 159.892 26.9282 160.338 27.8052C160.784 28.6785 161.007 29.7246 161.007 30.9435ZM159.301 30.9435C159.301 30.0145 159.151 29.2322 158.85 28.5968C158.552 27.9576 158.144 27.4745 157.623 27.1475C157.107 26.8167 156.521 26.6514 155.867 26.6514C155.21 26.6514 154.623 26.8167 154.106 27.1475C153.589 27.4745 153.181 27.9576 152.88 28.5968C152.582 29.2322 152.434 30.0145 152.434 30.9435C152.434 31.8726 152.582 32.6567 152.88 33.2959C153.181 33.9314 153.589 34.4145 154.106 34.7452C154.623 35.0722 155.21 35.2357 155.867 35.2357C156.521 35.2357 157.107 35.0722 157.623 34.7452C158.144 34.4145 158.552 33.9314 158.85 33.2959C159.151 32.6567 159.301 31.8726 159.301 30.9435ZM172.055 25.2355V36.6516H170.472L164.669 28.279H164.563V36.6516H162.84V25.2355H164.435L170.243 33.6192H170.349V25.2355H172.055Z" fill="white"/>
<path d="M35.8515 52.2864V59.4103H33.6539C33.5318 58.8487 33.4708 58.4458 33.4708 58.2017C33.4708 58.1772 33.4708 58.1467 33.4708 58.1101C33.4708 58.0613 33.4708 58.0185 33.4708 57.9819C32.5429 59.154 31.2304 59.74 29.5334 59.74C27.5189 59.74 25.9257 59.0258 24.7536 57.5973C23.7403 56.352 23.2336 54.7832 23.2336 52.8908C23.2336 50.6932 23.9295 48.9473 25.3213 47.6532C26.53 46.5299 28.05 45.9683 29.8813 45.9683C31.5418 45.9683 32.9214 46.4689 34.0202 47.47C34.9725 48.3369 35.5158 49.4296 35.6501 50.7481H32.3353C32.0423 49.4418 31.206 48.7886 29.8264 48.7886C28.8253 48.7886 28.0561 49.1487 27.5189 49.8691C26.9817 50.5772 26.7131 51.5966 26.7131 52.9274C26.7131 55.5889 27.7997 56.9197 29.9729 56.9197C31.5723 56.9197 32.4879 56.1872 32.7199 54.7221H30.3392V52.2864H35.8515ZM43.6584 45.9683C45.6973 45.9683 47.3211 46.6887 48.5298 48.1293C49.5675 49.3868 50.0864 50.9618 50.0864 52.8542C50.0864 55.0395 49.4149 56.7732 48.072 58.0551C46.8999 59.1784 45.4287 59.74 43.6584 59.74C41.5829 59.74 39.9347 59.0197 38.7138 57.579C37.6639 56.3337 37.1389 54.7587 37.1389 52.8542C37.1389 50.6688 37.7859 48.9595 39.0801 47.7264C40.3254 46.5544 41.8515 45.9683 43.6584 45.9683ZM43.6401 48.7886C42.6512 48.7886 41.882 49.2037 41.3326 50.0339C40.8565 50.742 40.6184 51.676 40.6184 52.8358C40.6184 54.191 40.9236 55.2349 41.5341 55.9674C42.0713 56.6023 42.7794 56.9197 43.6584 56.9197C44.5863 56.9197 45.3127 56.5596 45.8377 55.8392C46.3627 55.1067 46.6252 54.0873 46.6252 52.7809C46.6252 51.4501 46.32 50.4307 45.7095 49.7226C45.1845 49.0999 44.4947 48.7886 43.6401 48.7886ZM51.5395 46.298H58.0041C59.3349 46.298 60.3482 46.5055 61.0441 46.9206C62.2284 47.6165 62.8205 48.6726 62.8205 50.0888C62.8205 50.8214 62.6374 51.4745 62.2711 52.0484C61.9048 52.6222 61.4104 53.0373 60.7877 53.2937C61.3371 53.4402 61.7767 53.7698 62.1063 54.2826C62.3261 54.6244 62.4726 54.9785 62.5458 55.3448C62.6313 55.6988 62.7289 56.5107 62.8388 57.7804C62.9243 58.5862 63.0342 59.0868 63.1685 59.2821L63.2783 59.4103H59.7805C59.6706 59.154 59.5424 58.2383 59.3959 56.6633C59.2982 55.8698 59.0785 55.3204 58.7366 55.0151C58.3948 54.6977 57.8393 54.539 57.0701 54.539H54.9641V59.4103H51.5395V46.298ZM54.9641 48.99V52.085H57.3814C58.7611 52.085 59.4509 51.56 59.4509 50.51C59.4509 49.4967 58.7488 48.99 57.3448 48.99H54.9641ZM64.927 46.298H70.5309C72.4477 46.298 73.9433 46.7863 75.0176 47.763C76.3484 48.9595 77.0138 50.626 77.0138 52.7626C77.0138 54.9724 76.3911 56.6816 75.1458 57.8903C74.1081 58.9037 72.5637 59.4103 70.5126 59.4103H64.927V46.298ZM68.3516 49.1182V56.5901H70.2379C71.3122 56.5901 72.1058 56.3154 72.6186 55.766C73.229 55.0945 73.5343 54.13 73.5343 52.8725C73.5343 51.444 73.1131 50.4063 72.2706 49.7592C71.6968 49.3319 70.9399 49.1182 69.9998 49.1182H68.3516ZM84.4264 45.9683C86.4653 45.9683 88.0891 46.6887 89.2978 48.1293C90.3355 49.3868 90.8544 50.9618 90.8544 52.8542C90.8544 55.0395 90.1829 56.7732 88.8399 58.0551C87.6679 59.1784 86.1967 59.74 84.4264 59.74C82.3509 59.74 80.7027 59.0197 79.4818 57.579C78.4319 56.3337 77.9069 54.7587 77.9069 52.8542C77.9069 50.6688 78.5539 48.9595 79.8481 47.7264C81.0934 46.5544 82.6195 45.9683 84.4264 45.9683ZM84.4081 48.7886C83.4192 48.7886 82.65 49.2037 82.1006 50.0339C81.6245 50.742 81.3864 51.676 81.3864 52.8358C81.3864 54.191 81.6916 55.2349 82.3021 55.9674C82.8393 56.6023 83.5474 56.9197 84.4264 56.9197C85.3543 56.9197 86.0807 56.5596 86.6057 55.8392C87.1307 55.1067 87.3932 54.0873 87.3932 52.7809C87.3932 51.4501 87.088 50.4307 86.4775 49.7226C85.9525 49.0999 85.2627 48.7886 84.4081 48.7886ZM103.717 46.298V59.4103H100.384L96.8492 53.4585L96.0983 52.1216C95.964 51.9019 95.7809 51.5295 95.5489 51.0045C95.6344 51.969 95.6771 53.08 95.6771 54.3375V59.4103H92.3441V46.298H95.8053L99.0651 51.8469C99.7 52.9457 100.188 53.8614 100.53 54.5939C100.433 53.312 100.384 52.1827 100.384 51.2059V46.298H103.717ZM123.396 46.298V59.4103H120.154V56.4619C120.154 54.5695 120.209 52.2254 120.319 49.4296C119.855 51.3952 119.385 53.1289 118.909 54.6305L117.389 59.4103H114.77L113.232 54.7587C112.78 53.4036 112.304 51.6272 111.803 49.4296C111.913 51.9202 111.968 54.1178 111.968 56.0224V59.4103H108.727V46.298H113.635L115.045 50.858C115.46 52.1888 115.814 53.7088 116.107 55.418C116.51 53.4646 116.882 51.9202 117.224 50.7847L118.561 46.298H123.396ZM131.374 45.9683C133.413 45.9683 135.036 46.6887 136.245 48.1293C137.283 49.3868 137.802 50.9618 137.802 52.8542C137.802 55.0395 137.13 56.7732 135.787 58.0551C134.615 59.1784 133.144 59.74 131.374 59.74C129.298 59.74 127.65 59.0197 126.429 57.579C125.379 56.3337 124.854 54.7587 124.854 52.8542C124.854 50.6688 125.501 48.9595 126.795 47.7264C128.041 46.5544 129.567 45.9683 131.374 45.9683ZM131.355 48.7886C130.367 48.7886 129.597 49.2037 129.048 50.0339C128.572 50.742 128.334 51.676 128.334 52.8358C128.334 54.191 128.639 55.2349 129.249 55.9674C129.787 56.6023 130.495 56.9197 131.374 56.9197C132.302 56.9197 133.028 56.5596 133.553 55.8392C134.078 55.1067 134.341 54.0873 134.341 52.7809C134.341 51.4501 134.035 50.4307 133.425 49.7226C132.9 49.0999 132.21 48.7886 131.355 48.7886ZM145.243 45.9683C147.282 45.9683 148.906 46.6887 150.115 48.1293C151.152 49.3868 151.671 50.9618 151.671 52.8542C151.671 55.0395 151 56.7732 149.657 58.0551C148.485 59.1784 147.014 59.74 145.243 59.74C143.168 59.74 141.52 59.0197 140.299 57.579C139.249 56.3337 138.724 54.7587 138.724 52.8542C138.724 50.6688 139.371 48.9595 140.665 47.7264C141.91 46.5544 143.436 45.9683 145.243 45.9683ZM145.225 48.7886C144.236 48.7886 143.467 49.2037 142.917 50.0339C142.441 50.742 142.203 51.676 142.203 52.8358C142.203 54.191 142.508 55.2349 143.119 55.9674C143.656 56.6023 144.364 56.9197 145.243 56.9197C146.171 56.9197 146.898 56.5596 147.423 55.8392C147.948 55.1067 148.21 54.0873 148.21 52.7809C148.21 51.4501 147.905 50.4307 147.294 49.7226C146.769 49.0999 146.08 48.7886 145.225 48.7886ZM153.161 46.298H158.765C160.682 46.298 162.177 46.7863 163.252 47.763C164.582 48.9595 165.248 50.626 165.248 52.7626C165.248 54.9724 164.625 56.6816 163.38 57.8903C162.342 58.9037 160.798 59.4103 158.747 59.4103H153.161V46.298ZM156.586 49.1182V56.5901H158.472C159.546 56.5901 160.34 56.3154 160.853 55.766C161.463 55.0945 161.768 54.13 161.768 52.8725C161.768 51.444 161.347 50.4063 160.505 49.7592C159.931 49.3319 159.174 49.1182 158.234 49.1182H156.586ZM178.136 46.298L173.301 54.484V59.4103H169.877V54.484L165.06 46.298H168.943L170.463 49.0816C170.878 49.8386 171.262 50.681 171.617 51.6088C172.044 50.5222 172.459 49.6127 172.862 48.8802L174.309 46.298H178.136Z" fill="white"/>
</svg>
