<svg width="34" height="34" viewBox="0 0 34 34" fill="none" xmlns="http://www.w3.org/2000/svg">
<path d="M9.70429 0.707153H23.4941C28.7474 0.707153 33.0157 4.97543 33.0157 10.2287V24.0185C33.0157 26.5438 32.0125 28.9656 30.2269 30.7513C28.4412 32.5369 26.0194 33.5401 23.4941 33.5401H9.70429C4.45102 33.5401 0.182739 29.2718 0.182739 24.0185V10.2287C0.182739 7.70343 1.1859 5.28159 2.97154 3.49595C4.75717 1.71031 7.17902 0.707153 9.70429 0.707153ZM9.37596 3.99045C7.80855 3.99045 6.30533 4.6131 5.19701 5.72142C4.08868 6.82975 3.46603 8.33296 3.46603 9.90037V24.3469C3.46603 27.6137 6.10908 30.2568 9.37596 30.2568H23.8224C25.3899 30.2568 26.8931 29.6341 28.0014 28.5258C29.1097 27.4175 29.7324 25.9143 29.7324 24.3469V9.90037C29.7324 6.6335 27.0893 3.99045 23.8224 3.99045H9.37596ZM25.2178 6.45291C25.7621 6.45291 26.284 6.66911 26.6689 7.05395C27.0537 7.43878 27.2699 7.96073 27.2699 8.50497C27.2699 9.04921 27.0537 9.57116 26.6689 9.956C26.284 10.3408 25.7621 10.557 25.2178 10.557C24.6736 10.557 24.1517 10.3408 23.7668 9.956C23.382 9.57116 23.1658 9.04921 23.1658 8.50497C23.1658 7.96073 23.382 7.43878 23.7668 7.05395C24.1517 6.66911 24.6736 6.45291 25.2178 6.45291ZM16.5992 8.91538C18.7762 8.91538 20.864 9.78018 22.4033 11.3195C23.9426 12.8589 24.8074 14.9467 24.8074 17.1236C24.8074 19.3006 23.9426 21.3884 22.4033 22.9277C20.864 24.4671 18.7762 25.3318 16.5992 25.3318C14.4222 25.3318 12.3344 24.4671 10.7951 22.9277C9.25576 21.3884 8.39097 19.3006 8.39097 17.1236C8.39097 14.9467 9.25576 12.8589 10.7951 11.3195C12.3344 9.78018 14.4222 8.91538 16.5992 8.91538ZM16.5992 12.1987C15.293 12.1987 14.0403 12.7176 13.1167 13.6412C12.1931 14.5648 11.6743 15.8174 11.6743 17.1236C11.6743 18.4298 12.1931 19.6825 13.1167 20.6061C14.0403 21.5297 15.293 22.0486 16.5992 22.0486C17.9054 22.0486 19.1581 21.5297 20.0817 20.6061C21.0053 19.6825 21.5241 18.4298 21.5241 17.1236C21.5241 15.8174 21.0053 14.5648 20.0817 13.6412C19.1581 12.7176 17.9054 12.1987 16.5992 12.1987Z" fill="#ECECEC"/>
</svg>
