<svg width="31" height="31" viewBox="0 0 31 31" fill="none" xmlns="http://www.w3.org/2000/svg">
<path d="M26.9656 0.123596C27.8497 0.123596 28.6975 0.474786 29.3226 1.09991C29.9478 1.72503 30.299 2.57287 30.299 3.45693V26.7903C30.299 27.6743 29.9478 28.5222 29.3226 29.1473C28.6975 29.7724 27.8497 30.1236 26.9656 30.1236H3.63228C2.74823 30.1236 1.90038 29.7724 1.27526 29.1473C0.65014 28.5222 0.29895 27.6743 0.29895 26.7903V3.45693C0.29895 2.57287 0.65014 1.72503 1.27526 1.09991C1.90038 0.474786 2.74823 0.123596 3.63228 0.123596H26.9656ZM26.1323 25.9569V17.1236C26.1323 15.6826 25.5598 14.3006 24.5409 13.2816C23.5219 12.2627 22.14 11.6903 20.6989 11.6903C19.2823 11.6903 17.6323 12.5569 16.8323 13.8569V12.0069H12.1823V25.9569H16.8323V17.7403C16.8323 16.4569 17.8656 15.4069 19.149 15.4069C19.7678 15.4069 20.3613 15.6528 20.7989 16.0903C21.2365 16.5279 21.4823 17.1214 21.4823 17.7403V25.9569H26.1323ZM6.76562 9.39026C7.50822 9.39026 8.22041 9.09526 8.74552 8.57016C9.27062 8.04506 9.56562 7.33287 9.56562 6.59026C9.56562 5.04026 8.31562 3.7736 6.76562 3.7736C6.01859 3.7736 5.30216 4.07035 4.77393 4.59858C4.24571 5.12681 3.94895 5.84324 3.94895 6.59026C3.94895 8.14026 5.21562 9.39026 6.76562 9.39026ZM9.08228 25.9569V12.0069H4.46562V25.9569H9.08228Z" fill="#ECECEC"/>
</svg>
