<svg width="41" height="26" viewBox="0 0 41 26" fill="none" xmlns="http://www.w3.org/2000/svg">
<path d="M29.5108 26.0006H26.4227C25.6351 25.988 24.8707 25.731 24.2344 25.265C23.598 24.799 23.1209 24.1467 22.8684 23.3977L20.8291 18.1333L18.6441 23.6024C18.3637 24.3108 17.8777 24.9183 17.2491 25.346C16.6205 25.7736 15.8783 26.0017 15.119 26.0006H12.0017C11.2141 25.988 10.4497 25.731 9.81338 25.265C9.17703 24.799 8.6999 24.1467 8.44746 23.3977L0.931071 3.24695C0.79807 2.88024 0.755106 2.48674 0.805821 2.09981C0.856536 1.71288 0.999435 1.34393 1.2224 1.02423C1.44033 0.707144 1.732 0.448194 2.07213 0.269823C2.41226 0.0914533 2.79059 -0.000954712 3.17433 0.000608607H6.61206C7.11957 -0.0107995 7.61778 0.138423 8.0361 0.427129C8.45441 0.715835 8.7716 1.12938 8.94273 1.60916L14.1576 16.2323L17.304 8.42356L15.3521 3.21771C15.2366 2.84454 15.2162 2.4483 15.2925 2.06515C15.3688 1.68199 15.5396 1.32414 15.7891 1.02423C16.0087 0.708928 16.3008 0.45132 16.6405 0.27316C16.9802 0.0950001 17.3577 0.00151852 17.741 0.000608607H21.1787C21.6834 0.00563842 22.1739 0.169085 22.5814 0.468037C22.9889 0.766989 23.293 1.18646 23.4511 1.66765L27.8794 14.9455L32.5698 1.60916C32.7377 1.1389 33.046 0.732076 33.4527 0.444202C33.8594 0.156327 34.3446 0.00141834 34.8422 0.000608607H38.3965C38.7838 0.00166304 39.1654 0.0950051 39.5098 0.272959C39.8542 0.450913 40.1516 0.708395 40.3776 1.02423C40.5957 1.34641 40.7334 1.71657 40.7791 2.10344C40.8247 2.49031 40.7769 2.88253 40.6398 3.24695L33.0651 23.3977C32.8127 24.1467 32.3355 24.799 31.6992 25.265C31.0628 25.731 30.2984 25.988 29.5108 26.0006ZM20.7708 15.5304L23.6842 23.193C23.8936 23.738 24.2609 24.2076 24.7386 24.5412C25.2163 24.8748 25.7826 25.0571 26.3644 25.0647H29.5108C30.0927 25.0571 30.659 24.8748 31.1367 24.5412C31.6144 24.2076 31.9817 23.738 32.1911 23.193L39.7658 2.92524C39.8522 2.70444 39.8816 2.46524 39.851 2.22997C39.8204 1.99471 39.731 1.77106 39.591 1.57991C39.4625 1.37979 39.2855 1.21575 39.0766 1.10319C38.8676 0.990639 38.6336 0.933275 38.3965 0.936492H34.8422C34.5404 0.942954 34.2477 1.04157 34.0031 1.21921C33.7584 1.39686 33.5735 1.64509 33.473 1.93087L27.8502 17.8409L22.6645 1.96011C22.5718 1.64402 22.3735 1.36965 22.1028 1.18321C21.8322 0.996762 21.5058 0.909632 21.1787 0.936492H17.741C17.5083 0.939876 17.2795 0.997043 17.0723 1.10356C16.8652 1.21007 16.6852 1.36306 16.5465 1.55066C16.4014 1.74503 16.309 1.97386 16.2784 2.21479C16.2478 2.45573 16.2799 2.70052 16.3717 2.92524L18.2654 8.4528L14.0993 18.923L8.06873 1.93087C7.95587 1.6358 7.75586 1.38242 7.49551 1.20469C7.23515 1.02696 6.9269 0.93338 6.61206 0.936492H3.17433C2.9382 0.938511 2.70609 0.998132 2.498 1.11022C2.28992 1.22231 2.1121 1.3835 1.97987 1.57991C1.84463 1.7733 1.75809 1.9967 1.72764 2.23099C1.6972 2.46529 1.72377 2.70351 1.80507 2.92524L9.32146 23.193C9.5309 23.738 9.89815 24.2076 10.3759 24.5412C10.8536 24.8748 11.4198 25.0571 12.0017 25.0647H15.119C15.6731 25.0687 16.2168 24.914 16.6863 24.6187C17.1559 24.3235 17.5319 23.8999 17.7701 23.3977L20.7708 15.5304Z" fill="#0BF79C" fill-opacity="0.5"/>
</svg>
