<svg width="62" height="61" viewBox="0 0 62 61" fill="none" xmlns="http://www.w3.org/2000/svg">
<path d="M18.9082 21.267V38.3239H15.8183V24.2736H15.7183L11.729 26.8222V23.9905L15.9682 21.267H18.9082ZM28.8331 38.5571C27.5949 38.5571 26.4956 38.3488 25.535 37.9324C24.58 37.516 23.8304 36.9469 23.2863 36.2251C22.7477 35.4977 22.4812 34.6732 22.4868 33.7515C22.4812 33.0352 22.6367 32.3773 22.9532 31.7776C23.2696 31.178 23.6972 30.6783 24.2357 30.2785C24.7799 29.8732 25.3851 29.615 26.0514 29.5039V29.3873C25.1741 29.193 24.4634 28.7461 23.9193 28.0465C23.3807 27.3413 23.1142 26.5279 23.1197 25.6062C23.1142 24.7289 23.3585 23.946 23.8526 23.2576C24.3468 22.5691 25.0242 22.0277 25.8848 21.6335C26.7454 21.2337 27.7282 21.0338 28.8331 21.0338C29.9269 21.0338 30.9013 21.2337 31.7564 21.6335C32.617 22.0277 33.2944 22.5691 33.7886 23.2576C34.2883 23.946 34.5381 24.7289 34.5381 25.6062C34.5381 26.5279 34.2633 27.3413 33.7136 28.0465C33.1695 28.7461 32.4671 29.193 31.6065 29.3873V29.5039C32.2728 29.615 32.8724 29.8732 33.4055 30.2785C33.944 30.6783 34.3716 31.178 34.688 31.7776C35.0101 32.3773 35.1711 33.0352 35.1711 33.7515C35.1711 34.6732 34.899 35.4977 34.3549 36.2251C33.8108 36.9469 33.0612 37.516 32.1062 37.9324C31.1568 38.3488 30.0657 38.5571 28.8331 38.5571ZM28.8331 36.1751C29.4716 36.1751 30.0268 36.0668 30.4988 35.8503C30.9707 35.6282 31.3372 35.3173 31.5982 34.9175C31.8591 34.5177 31.9924 34.0569 31.9979 33.535C31.9924 32.9908 31.8508 32.5105 31.5732 32.0941C31.3011 31.6721 30.9263 31.3418 30.4488 31.103C29.9769 30.8643 29.4383 30.7449 28.8331 30.7449C28.2223 30.7449 27.6782 30.8643 27.2007 31.103C26.7232 31.3418 26.3456 31.6721 26.068 32.0941C25.796 32.5105 25.6627 32.9908 25.6683 33.535C25.6627 34.0569 25.7904 34.5177 26.0514 34.9175C26.3123 35.3117 26.6788 35.6199 27.1507 35.842C27.6282 36.064 28.189 36.1751 28.8331 36.1751ZM28.8331 28.4046C29.355 28.4046 29.8159 28.2991 30.2156 28.0881C30.6209 27.8771 30.9402 27.5828 31.1734 27.2053C31.4066 26.8277 31.526 26.3919 31.5315 25.8977C31.526 25.4091 31.4094 24.9816 31.1817 24.6151C30.9541 24.2431 30.6376 23.9572 30.2323 23.7573C29.827 23.5518 29.3606 23.4491 28.8331 23.4491C28.2945 23.4491 27.8198 23.5518 27.4089 23.7573C27.0036 23.9572 26.6871 24.2431 26.4595 24.6151C26.2374 24.9816 26.1291 25.4091 26.1347 25.8977C26.1291 26.3919 26.2401 26.8277 26.4678 27.2053C26.701 27.5773 27.0203 27.8716 27.4256 28.0881C27.8364 28.2991 28.3056 28.4046 28.8331 28.4046ZM42.5038 35.5921V24.0654H45.1189V35.5921H42.5038ZM38.048 31.1363V28.5212H49.5747V31.1363H38.048Z" fill="white"/>
<circle cx="31.0894" cy="30.5974" r="28.2112" stroke="white" stroke-width="4"/>
</svg>
