<svg width="16" height="18" viewBox="0 0 16 18" fill="none" xmlns="http://www.w3.org/2000/svg">
<path fill-rule="evenodd" clip-rule="evenodd" d="M2 0.098877C0.895431 0.098877 0 0.994308 0 2.09888V12.5086C0 13.6132 0.895432 14.5086 2 14.5086H10.6209C11.7255 14.5086 12.6209 13.6132 12.6209 12.5086V2.09888C12.6209 0.994308 11.7255 0.098877 10.6209 0.098877H2ZM9.68949 7.30376L6.31038 3.05923L2.93127 7.30376L6.31038 11.5483L9.68949 7.30376Z"/>
<path fill-rule="evenodd" clip-rule="evenodd" d="M3.37939 15.1369C3.39965 16.2239 4.28717 17.0989 5.37904 17.0989H13.9999C15.1045 17.0989 15.9999 16.2035 15.9999 15.0989V4.76157C15.9999 3.657 15.1045 2.76157 13.9999 2.76157H13.3626V13.1369C13.3626 14.2415 12.4672 15.1369 11.3626 15.1369H3.37939Z"/>
</svg>
