<svg width="17" height="17" viewBox="0 0 17 17" fill="none" xmlns="http://www.w3.org/2000/svg">
<ellipse cx="7.90411" cy="11.214" rx="4.29473" ry="3.78154"/>
<path fill-rule="evenodd" clip-rule="evenodd" d="M12.1251 13.0688C11.7517 14.4495 10.0039 15.4944 7.90411 15.4944C5.80434 15.4944 4.05652 14.4495 3.68309 13.0688C3.63469 13.2478 3.60938 13.4324 3.60938 13.6211C3.60938 15.2657 5.53219 16.5989 7.90411 16.5989C10.276 16.5989 12.1988 15.2657 12.1988 13.6211C12.1988 13.4324 12.1735 13.2478 12.1251 13.0688Z"/>
<path fill-rule="evenodd" clip-rule="evenodd" d="M0.00512695 1.59888C0.00512695 1.04659 0.452842 0.598877 1.00513 0.598877H15.0051C15.5574 0.598877 16.0051 1.04659 16.0051 1.59888V8.72885C16.0051 9.28114 15.5574 9.72885 15.0051 9.72885H12.2577C11.6403 8.12047 9.92112 6.96332 7.89684 6.96332C5.87256 6.96332 4.15334 8.12047 3.53599 9.72885H1.00513C0.452842 9.72885 0.00512695 9.28114 0.00512695 8.72885V1.59888ZM1.76831 2.31953C1.49217 2.31953 1.26831 2.54339 1.26831 2.81953V6.10359C1.26831 6.37974 1.49217 6.60359 1.76831 6.60359H14.242C14.5181 6.60359 14.742 6.37974 14.742 6.10359V2.81953C14.742 2.54339 14.5181 2.31953 14.242 2.31953H1.76831Z"/>
</svg>
