<svg width="16" height="17" viewBox="0 0 16 17" fill="none" xmlns="http://www.w3.org/2000/svg">
<path fill-rule="evenodd" clip-rule="evenodd" d="M13.9641 7.9389H15.9731C15.8882 6.89755 15.6043 5.91255 15.1596 5.02206L13.4772 6.14252C13.7275 6.70124 13.895 7.30523 13.9641 7.9389ZM15.9998 8.61753L15.9999 8.59899L15.9998 8.58045V8.61753ZM15.9928 8.9389H13.9904C13.9513 9.64108 13.7919 10.311 13.5324 10.9283L15.2478 11.9935C15.685 11.0595 15.9474 10.0273 15.9928 8.9389ZM14.7672 12.8721L13.0678 11.817C12.6661 12.4502 12.1493 13.0031 11.5469 13.4461L12.6544 15.1137C13.4948 14.5107 14.2136 13.7489 14.7672 12.8721ZM12.9919 5.26427L14.6566 4.15553C14.0794 3.29058 13.3385 2.54439 12.4782 1.96132L11.4745 3.69473L11.4374 3.67322C12.0488 4.10212 12.5767 4.64223 12.9919 5.26427ZM11.8068 15.6451L10.6942 13.9698C10.0267 14.3066 9.28783 14.5223 8.50653 14.5883L8.57717 16.5889C9.7401 16.5053 10.8342 16.1731 11.8068 15.6451ZM10.6125 3.18772L11.6169 1.45306C10.6943 0.983826 9.66858 0.688296 8.58286 0.6095L8.62511 2.62092C9.33104 2.69457 10.0007 2.89069 10.6125 3.18772ZM0.00512695 9.0738L2.00448 9.00051C2.04946 9.68339 2.20832 10.335 2.46221 10.9366L0.711223 11.924C0.311044 11.0473 0.0642326 10.0858 0.00512695 9.0738ZM2.61497 5.92836C2.3 6.56307 2.0938 7.26148 2.02081 7.99924L0.00827771 8.07302C0.0826803 6.92417 0.399066 5.84133 0.906941 4.87502L2.61497 5.92836ZM3.61785 1.89146C2.75838 2.45445 2.0137 3.17843 1.42658 4.0206L3.13257 5.07269C3.54738 4.50044 4.06051 4.00431 4.64707 3.60909L3.61785 1.89146ZM4.53992 13.515C3.89833 13.0622 3.34928 12.4868 2.92689 11.8226L1.18277 12.8062C1.77239 13.7605 2.55662 14.5816 3.48002 15.2142L4.53992 13.515ZM7.58241 0.598755C6.47656 0.65503 5.42995 0.935922 4.48722 1.39675L5.52049 3.12116C6.16866 2.82719 6.8782 2.64514 7.62444 2.59957L7.58241 0.598755ZM4.33886 15.7268L5.40243 14.0217C6.04815 14.3317 6.75774 14.5296 7.50597 14.59L7.5769 16.5989C6.41475 16.539 5.31812 16.231 4.33886 15.7268ZM13.4892 8.59899C13.4892 11.6355 11.0297 14.097 7.99563 14.097C4.96161 14.097 2.50204 11.6355 2.50204 8.59899C2.50204 5.56252 4.96161 3.10098 7.99563 3.10098C11.0297 3.10098 13.4892 5.56252 13.4892 8.59899ZM8.37609 6.91487C8.74331 6.77272 9.0025 6.42724 9.0025 6.02362C9.0025 5.49314 8.55478 5.0631 8.0025 5.0631C7.45021 5.0631 7.0025 5.49314 7.0025 6.02362C7.0025 6.39568 7.22274 6.71834 7.54482 6.87786V7.57372C7.26265 7.68705 7.03746 7.91239 6.92417 8.19477H6.21006C6.05489 7.84332 5.70353 7.59807 5.29493 7.59807C4.74265 7.59807 4.29493 8.04615 4.29493 8.59888C4.29493 9.1516 4.74265 9.59968 5.29493 9.59968C5.69428 9.59968 6.03895 9.36541 6.19922 9.0267H6.92416C7.03744 9.30907 7.26262 9.53441 7.54477 9.64775V10.357C7.19078 10.5184 6.9465 10.8614 6.9465 11.2584C6.9465 11.8107 7.41928 12.2584 8.00249 12.2584C8.58571 12.2584 9.05849 11.8107 9.05849 11.2584C9.05849 10.8306 8.77489 10.4656 8.37603 10.3228V9.64766C8.65808 9.53429 8.88317 9.30899 8.99642 9.0267H9.78067C9.94089 9.36495 10.2852 9.59888 10.6841 9.59888C11.2359 9.59888 11.6833 9.15116 11.6833 8.59888C11.6833 8.04659 11.2359 7.59888 10.6841 7.59888C10.2759 7.59888 9.92494 7.84378 9.76982 8.19476H8.99641C8.88317 7.9125 8.6581 7.68722 8.37609 7.57385V6.91487ZM7.07925 8.68239C7.11572 9.1353 7.49489 9.49376 7.96029 9.49376C8.42651 9.49376 8.80619 9.13404 8.84152 8.68001V8.54147C8.80619 8.08745 8.42651 7.72773 7.96029 7.72773C7.49489 7.72773 7.11572 8.08619 7.07925 8.5391V8.68239Z"/>
</svg>
