<svg width="17" height="15" viewBox="0 0 17 15" fill="none" xmlns="http://www.w3.org/2000/svg">
<path d="M0.00512695 2.32556C0.00512695 1.22099 0.900557 0.325562 2.00513 0.325562H14.0051C15.1097 0.325562 16.0051 1.22099 16.0051 2.32556V2.9704H0.00512695V2.32556Z" />
<path d="M16.0051 12.8722C16.0051 13.9767 15.1097 14.8722 14.0051 14.8722H2.00513C0.900558 14.8722 0.00512695 13.9767 0.00512695 12.8722V12.2273H16.0051V12.8722Z" />
<path fill-rule="evenodd" clip-rule="evenodd" d="M16.005 3.73083H11.3447V11.1694H16.005V3.73083ZM12.1079 4.52256V5.60035H14.181C13.7528 6.28584 13.4099 7.06356 13.1526 7.93351C12.8973 8.80345 12.7622 9.65688 12.747 10.4938H13.6262C13.6241 9.95971 13.6922 9.35405 13.8306 8.67681C13.9712 7.99683 14.1745 7.35538 14.4406 6.75248C14.7066 6.14957 14.9683 5.68707 15.2257 5.36497V4.52256H12.1079Z"/>
<path fill-rule="evenodd" clip-rule="evenodd" d="M10.3351 3.73083H5.6748V11.1694H10.3351V3.73083ZM6.4379 4.52256V5.60035H8.51103C8.08278 6.28584 7.73996 7.06356 7.48258 7.93351C7.22735 8.80345 7.09217 9.65688 7.07703 10.4938H7.95625C7.95409 9.95971 8.02222 9.35405 8.16064 8.67681C8.30123 7.99683 8.50454 7.35538 8.77058 6.75248C9.03661 6.14957 9.29832 5.68707 9.55571 5.36497V4.52256H6.4379Z"/>
<path fill-rule="evenodd" clip-rule="evenodd" d="M4.66545 3.73083H0.00512695V11.1694H4.66545V3.73083ZM0.768256 4.52256V5.60035H2.84139C2.41313 6.28584 2.07032 7.06356 1.81293 7.93351C1.55771 8.80345 1.42253 9.65688 1.40739 10.4938H2.2866C2.28444 9.95971 2.35257 9.35405 2.491 8.67681C2.63159 7.99683 2.8349 7.35538 3.10093 6.75248C3.36697 6.14957 3.62868 5.68707 3.88606 5.36497V4.52256H0.768256Z"/>
</svg>
