<svg width="34" height="34" viewBox="0 0 34 34" fill="none" xmlns="http://www.w3.org/2000/svg">
<path d="M17.1998 0.707153C8.1379 0.707153 0.783325 8.06173 0.783325 17.1236C0.783325 26.1855 8.1379 33.5401 17.1998 33.5401C26.2617 33.5401 33.6162 26.1855 33.6162 17.1236C33.6162 8.06173 26.2617 0.707153 17.1998 0.707153ZM24.817 11.8703C24.5708 14.4641 23.5037 20.7681 22.962 23.6738C22.7321 24.905 22.2725 25.3154 21.8456 25.3647C20.8935 25.4468 20.1712 24.7409 19.2518 24.1334C17.8072 23.1813 16.9864 22.5903 15.591 21.671C13.9657 20.6039 15.0164 20.0129 15.9521 19.0608C16.1984 18.8145 20.401 14.9895 20.4831 14.6447C20.4945 14.5925 20.493 14.5383 20.4787 14.4868C20.4644 14.4353 20.4377 14.3881 20.401 14.3492C20.3025 14.2671 20.1712 14.3 20.0562 14.3164C19.9085 14.3492 17.6102 15.876 13.1285 18.8966C12.4718 19.3398 11.8809 19.5697 11.3555 19.5532C10.7645 19.5368 9.64821 19.2249 8.81097 18.9458C7.77674 18.6175 6.97233 18.4369 7.038 17.8624C7.07083 17.5669 7.48124 17.2714 8.25281 16.9594C13.0464 14.8746 16.2312 13.4956 17.8236 12.8389C22.3874 10.9346 23.3231 10.6063 23.947 10.6063C24.0783 10.6063 24.3902 10.6391 24.5872 10.8033C24.7514 10.9346 24.8006 11.1152 24.817 11.2465C24.8006 11.345 24.8334 11.6405 24.817 11.8703Z" fill="#ECECEC"/>
</svg>
