<svg width="31" height="31" viewBox="0 0 31 31" fill="none" xmlns="http://www.w3.org/2000/svg">
<path d="M23.9015 4.8236C22.5936 3.52297 21.8729 1.85265 21.8734 0.123596H15.9614V20.7903C15.9158 21.9086 15.3738 22.968 14.4495 23.7452C13.5252 24.5224 12.2907 24.9568 11.0061 24.9569C8.28924 24.9569 6.03159 23.0236 6.03159 20.6236C6.03159 17.7569 9.20761 15.6069 12.4793 16.4903V11.2236C5.87853 10.4569 0.100464 14.9236 0.100464 20.6236C0.100464 26.1736 5.38108 30.1236 10.9869 30.1236C16.9946 30.1236 21.8734 25.8736 21.8734 20.6236V10.1403C24.2707 11.64 27.149 12.4447 30.1005 12.4403V7.29026C30.1005 7.29026 26.5035 7.44026 23.9015 4.8236Z" fill="white"/>
</svg>
