<svg width="18" height="17" viewBox="0 0 18 17" fill="none" xmlns="http://www.w3.org/2000/svg">
<g clip-path="url(#clip0_21_3877)">
<path d="M8.93072 8.59085C8.28419 8.42285 8.07633 8.24907 8.07633 7.97852C8.07633 7.66812 8.36395 7.45167 8.84524 7.45167C9.24966 7.45167 9.45186 7.60542 9.52592 7.85037C9.56012 7.96427 9.65407 8.04975 9.77369 8.04975H9.85917C10.0471 8.04975 10.181 7.86461 10.1155 7.68801C9.99585 7.35194 9.71677 7.07286 9.27244 6.96465V6.76814C9.27244 6.53175 9.08166 6.34094 8.84524 6.34094C8.6089 6.34094 8.41805 6.53175 8.41805 6.76814V6.9561C7.86553 7.07575 7.42126 7.4346 7.42126 7.98423C7.42126 8.64212 7.96525 8.96966 8.75983 9.16044C9.47182 9.33133 9.61422 9.58193 9.61422 9.84683C9.61422 10.0433 9.47465 10.3566 8.84524 10.3566C8.37538 10.3566 8.13326 10.1885 8.03931 9.94931C7.99657 9.83829 7.89973 9.75853 7.78294 9.75853H7.70324C7.51239 9.75853 7.37855 9.9522 7.44976 10.1287C7.61211 10.5246 7.99086 10.7581 8.41805 10.8493V11.0401C8.41805 11.2765 8.6089 11.4673 8.84524 11.4673C9.08166 11.4673 9.27244 11.2765 9.27244 11.0401V10.855C9.82779 10.7496 10.2692 10.4278 10.2692 9.84394C10.2692 9.03511 9.57719 8.75885 8.93072 8.59085Z" fill="black"/>
<path d="M8.84525 16.1235C12.8324 16.1235 16.0646 12.8912 16.0646 8.90409C16.0646 4.91695 12.8324 1.68472 8.84525 1.68472C4.85811 1.68472 1.62589 4.91695 1.62589 8.90409C1.62589 12.8912 4.85811 16.1235 8.84525 16.1235Z" stroke-width="0.962582"/>
<path d="M8.84529 13.4163C11.3373 13.4163 13.3574 11.3961 13.3574 8.90412C13.3574 6.41213 11.3373 4.39197 8.84529 4.39197C6.3533 4.39197 4.33313 6.41213 4.33313 8.90412C4.33313 11.3961 6.3533 13.4163 8.84529 13.4163Z" stroke-width="0.894476"/>
<path d="M9.03513 1.70477V4.18192" stroke-width="0.962582"/>
<path d="M9.03513 16.1032V13.6261" stroke-width="0.962582"/>
<path d="M16.0941 8.87933H13.6169" stroke-width="0.962582"/>
<path d="M5.56334 5.82772L3.81174 4.07611" stroke-width="0.962582"/>
<path d="M12.5452 5.85105L14.4475 4.26443" stroke-width="0.962582"/>
<path d="M14.2919 13.9732L12.3503 12.248" stroke-width="0.962582"/>
<path d="M5.55516 12.248L3.82004 14.016" stroke-width="0.962582"/>
<path d="M1.59659 9.04193H4.07373" stroke-width="0.962582"/>
</g>
<defs>
<clipPath id="clip0_21_3877">
<rect width="16.043" height="16.043" fill="#000000" transform="translate(0.962219 0.577362)"/>
</clipPath>
</defs>
</svg>
