<svg width="21" height="21" viewBox="0 0 21 21" fill="none" xmlns="http://www.w3.org/2000/svg">
<path d="M18.5286 3.36572H16.862V2.53239C16.8615 2.0905 16.6858 1.66683 16.3733 1.35437C16.0609 1.0419 15.6372 0.866164 15.1953 0.865723H5.19531C4.75342 0.866164 4.32975 1.0419 4.01729 1.35437C3.70482 1.66683 3.52909 2.0905 3.52865 2.53239V3.36572H1.86198C1.42009 3.36616 0.99642 3.5419 0.683955 3.85437C0.37149 4.16683 0.195754 4.5905 0.195312 5.03239V7.53239C0.196415 8.41611 0.547959 9.26331 1.17284 9.88819C1.79772 10.5131 2.64493 10.8646 3.52865 10.8657H3.79698C4.14423 12.1413 4.8554 13.2882 5.84363 14.1663C6.83186 15.0445 8.05441 15.6159 9.36198 15.8107V19.1991H5.19531V20.8657H15.1953V19.1991H11.0286V15.8082C12.3532 15.6445 13.5976 15.0853 14.5996 14.2036C15.6015 13.3219 16.3144 12.1587 16.6453 10.8657H16.862C17.7457 10.8646 18.5929 10.5131 19.2178 9.88819C19.8427 9.26331 20.1942 8.41611 20.1953 7.53239V5.03239C20.1949 4.5905 20.0191 4.16683 19.7067 3.85437C19.3942 3.5419 18.9705 3.36616 18.5286 3.36572ZM3.52865 9.19906C3.08675 9.19861 2.66309 9.02288 2.35062 8.71041C2.03816 8.39795 1.86242 7.97428 1.86198 7.53239V5.03239H3.52865V9.19906ZM18.5286 7.53239C18.5282 7.97428 18.3525 8.39795 18.04 8.71041C17.7275 9.02288 17.3039 9.19861 16.862 9.19906V5.03239H18.5286V7.53239Z" fill="#35CC95"/>
</svg>
