<svg width="36" height="29" viewBox="0 0 36 29" fill="none" xmlns="http://www.w3.org/2000/svg">
<path d="M35.3222 4.20529C34.0582 4.77987 32.6956 5.15744 31.2838 5.33803C32.7284 4.46795 33.8448 3.08897 34.3701 1.43091C33.0075 2.25173 31.4972 2.82631 29.9048 3.15464C28.6079 1.74282 26.7857 0.921997 24.7172 0.921997C20.8593 0.921997 17.7074 4.07396 17.7074 7.96466C17.7074 8.52282 17.773 9.06456 17.888 9.57347C12.0437 9.27798 6.83968 6.47076 3.37581 2.2189C2.7684 3.25313 2.42365 4.46795 2.42365 5.74844C2.42365 8.19449 3.65489 10.3615 5.5592 11.5927C4.39363 11.5927 3.31014 11.2644 2.35799 10.7719V10.8211C2.35799 14.2357 4.78762 17.0922 8.00525 17.7325C6.97221 18.0152 5.88768 18.0545 4.83687 17.8474C5.28275 19.2468 6.156 20.4714 7.33384 21.3489C8.51169 22.2264 9.93492 22.7127 11.4035 22.7395C8.91411 24.7102 5.82842 25.7754 2.65348 25.7601C2.09532 25.7601 1.53716 25.7273 0.979004 25.6616C4.09813 27.6644 7.80825 28.83 11.781 28.83C24.7172 28.83 31.8255 18.0936 31.8255 8.78548C31.8255 8.47357 31.8255 8.17807 31.8091 7.86616C33.1881 6.88117 34.3701 5.63352 35.3222 4.20529Z" fill="white"/>
</svg>
